<svg width="32" height="32" viewBox="0 0 32 32" fill="none" xmlns="http://www.w3.org/2000/svg">
<path fill-rule="evenodd" clip-rule="evenodd" d="M17.7574 2.00223C17.865 1.12342 17.3449 0.477765 16.744 0.190808C16.1701 -0.078215 14.7533 0.0204267 14.0179 0.0204267C12.0989 0.0114593 10.1709 0.0114593 8.25189 0.0204267C5.6603 0.0383615 4.16274 -0.284466 2.12714 1.10549C1.92985 1.24 1.91192 1.2938 1.7505 1.44625C1.06898 2.065 0.710283 2.58511 0.324683 3.61636C-0.15059 4.89871 0.0377257 7.57997 0.0287583 9.12236V26.4026C0.0287583 28.0885 0.575771 29.4605 1.7236 30.5186C3.03285 31.7203 4.18068 31.9624 6.02797 31.9624L23.353 31.9714C25.1017 31.9714 27.1732 32.1687 28.6976 31.5409C30.0069 31.0119 31.0381 29.9627 31.5672 28.6534C32.1501 27.1917 31.9797 25.0037 31.9707 23.2999C31.9618 21.3629 31.9707 19.4259 31.9707 17.4979C31.9707 16.5205 32.1142 15.6596 31.612 14.9512C30.6794 13.633 28.4555 14.1621 28.4286 16.0452C28.3838 18.7803 28.4196 21.9009 28.4286 24.6539C28.4286 25.4072 28.5362 26.7613 28.2582 27.38C27.9623 28.0526 27.3794 28.4203 26.4109 28.4203H9.1307C8.16221 28.4203 7.18476 28.4203 6.22525 28.4203C5.79481 28.4203 5.2478 28.4561 4.85323 28.3485C3.34671 27.9181 3.57986 26.3129 3.57089 25.2906C3.57089 24.3401 3.57089 23.3806 3.57089 22.43V8.0104C3.57986 6.30659 3.11355 3.98403 4.97878 3.6074C5.85758 3.43702 15.7576 3.6881 16.4122 3.52669C17.1117 3.33837 17.6587 2.78239 17.7574 2.00223Z" fill="#00FFFF"/>
<path fill-rule="evenodd" clip-rule="evenodd" d="M25.8998 3.58052L18.5644 10.9159C16.771 12.7094 14.7981 14.6284 13.0495 16.4308C12.7894 16.6909 12.4756 17.1213 12.4576 17.6863C12.4487 18.2602 12.6908 18.7713 12.9688 19.0224C13.7579 19.7757 14.825 19.6591 15.5604 18.9417C17.3538 17.211 19.2998 15.2113 21.0843 13.4268L28.4107 6.10037C28.5004 7.42755 28.0968 9.49006 28.9936 10.2074C29.433 10.5572 30.0427 10.8262 30.7691 10.5751C31.3161 10.3868 31.7555 9.93843 31.908 9.34658C32.0335 8.88924 31.9707 5.46368 31.9707 4.71938C31.9797 2.9797 31.9438 2.04709 30.9305 1.06964C29.8724 0.0383881 29.1012 0.0204532 27.2808 0.0204532C26.5275 0.0204532 23.102 -0.0333513 22.6446 0.0832252C21.4071 0.397085 20.878 1.93051 21.7837 2.99764C22.528 3.87645 24.4022 3.48188 25.8998 3.58052Z" fill="#00FFFF"/>
</svg>
