<svg width="16" height="19" viewBox="0 0 16 19" fill="none" xmlns="http://www.w3.org/2000/svg">
<path fill-rule="evenodd" clip-rule="evenodd" d="M7.73893 7.67375L12.488 4.23459L7.75136 0.846191L7.73893 3.30818C5.79954 3.37163 4.05905 4.19652 2.77856 5.50366C1.4359 6.87424 0.615387 8.75246 0.615387 10.8337C0.615387 12.9277 1.4359 14.8059 2.77856 16.1765C4.10878 17.5344 5.96115 18.3847 8 18.3847C10.0389 18.3847 11.8912 17.5344 13.2214 16.1765C14.5641 14.8059 15.3846 12.9277 15.3846 10.8337C15.3846 10.5545 15.3722 10.2626 15.3349 9.97076C15.31 9.67888 15.2603 9.38699 15.1857 9.1078L13.3706 9.53928C13.4204 9.75502 13.4577 9.97076 13.4825 10.1865C13.5074 10.3896 13.5198 10.618 13.5198 10.8337C13.5198 12.3947 12.9106 13.8033 11.9037 14.8313C10.9091 15.8465 9.52914 16.4811 8 16.4811C6.47086 16.4811 5.09091 15.8465 4.09635 14.8313C3.10179 13.8033 2.48019 12.3947 2.48019 10.8337C2.48019 9.28547 3.10179 7.8768 4.09635 6.84886C5.04118 5.89707 6.32168 5.27522 7.73893 5.21177V7.67375Z" fill="white"/>
</svg>
