<svg width="39" height="34" viewBox="0 0 39 34" fill="none" xmlns="http://www.w3.org/2000/svg">
<path fill-rule="evenodd" clip-rule="evenodd" d="M4.6755 30.4662H34.2977V34H4.6755V30.4662ZM4.76119 29.2263H19.4839H19.5H19.5161H34.2388L39 6.73446L27.7156 17.4888L19.5161 0L19.5 0.0327711L19.4839 0L11.2844 17.4888L0 6.73446L4.76119 29.2263Z" fill="#E27177"/>
<path d="M18.7373 26C17.6873 26 16.8743 25.781 16.2983 25.343C15.7283 24.899 15.3833 24.218 15.2633 23.3C15.2393 23.048 15.2933 22.853 15.4253 22.715C15.5573 22.577 15.7493 22.508 16.0013 22.508C16.4633 22.508 16.7213 22.76 16.7753 23.264C16.8593 23.732 17.0483 24.053 17.3423 24.227C17.6363 24.401 18.1013 24.488 18.7373 24.488H20.7893C21.5633 24.488 22.0883 24.35 22.3643 24.074C22.6463 23.792 22.7873 23.27 22.7873 22.508C22.7873 21.752 22.6463 21.233 22.3643 20.951C22.0883 20.669 21.5633 20.528 20.7893 20.528H19.4033C18.8993 20.528 18.6473 20.276 18.6473 19.772C18.6473 19.268 18.8993 19.016 19.4033 19.016H21.4733C21.8513 19.016 22.1153 18.848 22.2653 18.512C22.4213 18.17 22.4993 17.708 22.4993 17.126C22.4993 16.412 22.3703 15.932 22.1123 15.686C21.8603 15.434 21.3833 15.308 20.6813 15.308H18.9353C18.3713 15.308 17.9543 15.383 17.6843 15.533C17.4143 15.683 17.2433 15.962 17.1713 16.37C17.0993 16.862 16.8353 17.108 16.3793 17.108C16.1273 17.108 15.9353 17.042 15.8033 16.91C15.6713 16.772 15.6233 16.574 15.6593 16.316C15.7793 15.47 16.1093 14.84 16.6493 14.426C17.1953 14.006 17.9573 13.796 18.9353 13.796H20.6813C21.8093 13.796 22.6463 14.069 23.1923 14.615C23.7383 15.161 24.0113 15.998 24.0113 17.126C24.0113 18.236 23.6993 19.022 23.0753 19.484C23.4893 19.754 23.7953 20.138 23.9933 20.636C24.1973 21.134 24.2993 21.758 24.2993 22.508C24.2993 23.696 24.0143 24.575 23.4443 25.145C22.8743 25.715 21.9893 26 20.7893 26H18.7373Z" fill="#1C2025"/>
</svg>
