<svg width="48" height="40" viewBox="0 0 48 40" fill="none" xmlns="http://www.w3.org/2000/svg">
<path fill-rule="evenodd" clip-rule="evenodd" d="M7.6691 35.3266H39.5382V39.0735H7.6691V35.3266ZM36.3346 16.5108L34.6521 10.9976L31.0394 15.5321L32.8429 19.7945L36.3346 16.5108ZM44.4934 7.51125C45.957 7.51125 47.1381 8.69845 47.1381 10.1636C47.1381 11.6346 45.957 12.8218 44.4934 12.8218C44.3379 12.8218 44.1823 12.8044 44.0325 12.7813L39.4748 34.0178H23.6353H23.618H23.6008H7.76129L3.19786 12.7639C3.01924 12.7987 2.83486 12.8218 2.63895 12.8218C1.18119 12.8218 0 11.6346 0 10.1636C0 8.69845 1.18119 7.51125 2.63895 7.51125C4.10248 7.51125 5.28367 8.69845 5.28367 10.1636C5.28367 10.8644 5.01286 11.5014 4.56919 11.9763L14.7793 21.5666L22.5982 5.13684C21.5956 4.7604 20.8811 3.79327 20.8811 2.65239C20.8811 1.18721 22.0623 0 23.5201 0C24.9836 0 26.1648 1.18721 26.1648 2.65239C26.1648 3.72956 25.5252 4.65616 24.6091 5.07313L32.4568 21.5666L42.615 12.0284C42.1426 11.5477 41.8545 10.8933 41.8545 10.1636C41.8545 8.69845 43.0357 7.51125 44.4934 7.51125ZM11.1032 16.5108L12.7857 10.9976L16.3984 15.5321L14.5949 19.7945L11.1032 16.5108Z" fill="#FBA01F"/>
<path d="M24.448 29C23.944 29 23.692 28.748 23.692 28.244V18.956L24.106 18.668L22.126 20.522C21.976 20.666 21.817 20.753 21.649 20.783C21.481 20.807 21.316 20.738 21.154 20.576C20.83 20.252 20.848 19.91 21.208 19.55L23.62 17.174C23.872 16.922 24.184 16.796 24.556 16.796C24.988 16.796 25.204 17.048 25.204 17.552V28.244C25.204 28.748 24.952 29 24.448 29Z" fill="#1C2025"/>
</svg>
