<svg width="43" height="37" viewBox="0 0 43 37" fill="none" xmlns="http://www.w3.org/2000/svg">
<path fill-rule="evenodd" clip-rule="evenodd" d="M6.99584 33.4519H36.0672V37H6.99584V33.4519ZM40.5875 7.11264C41.9225 7.11264 43 8.23685 43 9.62428C43 11.0117 41.9225 12.1414 40.5875 12.1414C40.4455 12.1414 40.3036 12.1249 40.167 12.103L36.0094 32.2071H21.5604H21.5447H21.5289H7.07994L2.91712 12.0811C2.75419 12.1195 2.58599 12.1414 2.40729 12.1414C1.0775 12.1414 0 11.0117 0 9.62428C0 8.23685 1.0775 7.11264 2.40729 7.11264C3.74233 7.11264 4.81983 8.23685 4.81983 9.62428C4.81983 10.2878 4.57279 10.8911 4.16807 11.3407L13.4818 20.4221L20.6143 4.86424C19.6998 4.50778 19.048 3.59197 19.048 2.51163C19.048 1.1242 20.1255 0 21.4553 0C22.7904 0 23.8679 1.1242 23.8679 2.51163C23.8679 3.53164 23.2844 4.40907 22.4487 4.80391L29.6075 20.4221L38.874 11.3901C38.443 10.9349 38.1802 10.3153 38.1802 9.62428C38.1802 8.23685 39.2577 7.11264 40.5875 7.11264Z" fill="#D5DBE8"/>
<path d="M24.8012 29H18.0692C17.5532 29 17.2952 28.748 17.2952 28.244C17.2952 27.44 17.4212 26.756 17.6732 26.192C17.9312 25.622 18.2582 25.142 18.6542 24.752C19.0562 24.356 19.4822 24.023 19.9322 23.753C20.3822 23.477 20.7992 23.228 21.1832 23.006C21.8492 22.628 22.4042 22.301 22.8482 22.025C23.2982 21.749 23.6342 21.467 23.8562 21.179C24.0782 20.891 24.1892 20.54 24.1892 20.126C24.1892 19.412 24.0602 18.932 23.8022 18.686C23.5502 18.434 23.0732 18.308 22.3712 18.308H20.4452C19.8812 18.308 19.4642 18.383 19.1942 18.533C18.9242 18.683 18.7532 18.962 18.6812 19.37C18.6392 19.61 18.5582 19.793 18.4382 19.919C18.3182 20.045 18.1352 20.108 17.8892 20.108C17.6372 20.108 17.4452 20.042 17.3132 19.91C17.1812 19.772 17.1272 19.574 17.1512 19.316C17.2772 18.47 17.6102 17.84 18.1502 17.426C18.6902 17.006 19.4552 16.796 20.4452 16.796H22.3712C23.4992 16.796 24.3362 17.069 24.8822 17.615C25.4282 18.161 25.7012 18.998 25.7012 20.126C25.7012 20.846 25.5242 21.449 25.1702 21.935C24.8162 22.415 24.3512 22.841 23.7752 23.213C23.1992 23.579 22.5812 23.948 21.9212 24.32C21.4412 24.596 20.9852 24.872 20.5532 25.148C20.1272 25.424 19.7612 25.745 19.4552 26.111C19.1552 26.477 18.9572 26.936 18.8612 27.488H24.8012C25.3052 27.488 25.5572 27.74 25.5572 28.244C25.5572 28.748 25.3052 29 24.8012 29Z" fill="#1C2025"/>
</svg>
